HIERARCHY
ROOT Skeleton
{
  OFFSET 0 0 0
  CHANNELS 6 Xposition Yposition Zposition Zrotation Xrotation Yrotation
  JOINT PELVIS
  {
    OFFSET 46.3386 101.608 -182
    CHANNELS 6 Xposition Yposition Zposition Zrotation Xrotation Yrotation
    JOINT SPINE1
    {
      OFFSET 0 7 0
      CHANNELS 6 Xposition Yposition Zposition Zrotation Xrotation Yrotation
      JOINT SPINE2
      {
        OFFSET 0 13 0
        CHANNELS 6 Xposition Yposition Zposition Zrotation Xrotation Yrotation
        JOINT SPINE3
        {
          OFFSET 0 13 0
          CHANNELS 6 Xposition Yposition Zposition Zrotation Xrotation Yrotation
          JOINT NECK
          {
            OFFSET 0 17 0
            CHANNELS 6 Xposition Yposition Zposition Zrotation Xrotation Yrotation
            JOINT NOSE
            {
              OFFSET 0 20 -8
              CHANNELS 6 Xposition Yposition Zposition Zrotation Xrotation Yrotation
              JOINT LEFTEYE
              {
                OFFSET -3 6 4
                CHANNELS 6 Xposition Yposition Zposition Zrotation Xrotation Yrotation
                JOINT LEFTEAR
                {
                  OFFSET -4 -6 9
                  CHANNELS 6 Xposition Yposition Zposition Zrotation Xrotation Yrotation
                  End Site
                  {
                    OFFSET 0 0 0
                  }
                }
              }
              JOINT RIGHTEYE
              {
                OFFSET 3 6 4
                CHANNELS 6 Xposition Yposition Zposition Zrotation Xrotation Yrotation
                JOINT RIGHTEAR
                {
                  OFFSET 4 -6 9
                  CHANNELS 6 Xposition Yposition Zposition Zrotation Xrotation Yrotation
                  End Site
                  {
                    OFFSET 0 0 0
                  }
                }
              }
            }
          }
          JOINT LEFTCLAVICLE
          {
            OFFSET -7 12 5
            CHANNELS 6 Xposition Yposition Zposition Zrotation Xrotation Yrotation
            JOINT LEFTSHOULDER
            {
              OFFSET -11 0 0
              CHANNELS 6 Xposition Yposition Zposition Zrotation Xrotation Yrotation
              JOINT LEFTELBOW
              {
                OFFSET -26 0 0
                CHANNELS 6 Xposition Yposition Zposition Zrotation Xrotation Yrotation
                JOINT LEFTWRIST
                {
                  OFFSET -26 0 0
                  CHANNELS 6 Xposition Yposition Zposition Zrotation Xrotation Yrotation
                  JOINT LEFTHANDTHUMB4
                  {
                    OFFSET -11 -4 -6
                    CHANNELS 6 Xposition Yposition Zposition Zrotation Xrotation Yrotation
                    End Site
                    {
                      OFFSET 0 0 0
                    }
                  }
                  JOINT LEFTHANDINDEX1
                  {
                    OFFSET 11 -4 -6
                    CHANNELS 6 Xposition Yposition Zposition Zrotation Xrotation Yrotation
                    End Site
                    {
                      OFFSET 0 0 0
                    }
                  }
                  JOINT LEFTHANDMIDDLE4
                  {
                    OFFSET 11 0 -3
                    CHANNELS 6 Xposition Yposition Zposition Zrotation Xrotation Yrotation
                    End Site
                    {
                      OFFSET 0 0 0
                    }
                  }
                  JOINT LEFTHANDPINKY1
                  {
                    OFFSET 19 0 -1
                    CHANNELS 6 Xposition Yposition Zposition Zrotation Xrotation Yrotation
                    End Site
                    {
                      OFFSET 0 0 0
                    }
                  }
                }
              }
            }
          }
          JOINT RIGHTCLAVICLE
          {
            OFFSET 7 12 5
            CHANNELS 6 Xposition Yposition Zposition Zrotation Xrotation Yrotation
            JOINT RIGHTSHOULDER
            {
              OFFSET 11 0 0
              CHANNELS 6 Xposition Yposition Zposition Zrotation Xrotation Yrotation
              JOINT RIGHTELBOW
              {
                OFFSET 26 0 0
                CHANNELS 6 Xposition Yposition Zposition Zrotation Xrotation Yrotation
                JOINT RIGHTWRIST
                {
                  OFFSET 26 0 0
                  CHANNELS 6 Xposition Yposition Zposition Zrotation Xrotation Yrotation
                  JOINT RIGHTHANDTHUMB4
                  {
                    OFFSET 11 -4 -6
                    CHANNELS 6 Xposition Yposition Zposition Zrotation Xrotation Yrotation
                    End Site
                    {
                      OFFSET 0 0 0
                    }
                  }
                  JOINT RIGHTHANDINDEX1
                  {
                    OFFSET -11 0 -3
                    CHANNELS 6 Xposition Yposition Zposition Zrotation Xrotation Yrotation
                    End Site
                    {
                      OFFSET 0 0 0
                    }
                  }
                  JOINT RIGHTHANDMIDDLE4
                  {
                    OFFSET -19 0 -1
                    CHANNELS 6 Xposition Yposition Zposition Zrotation Xrotation Yrotation
                    End Site
                    {
                      OFFSET 0 0 0
                    }
                  }
                  JOINT RIGHTHANDPINKY1
                  {
                    OFFSET -11 -1 4
                    CHANNELS 6 Xposition Yposition Zposition Zrotation Xrotation Yrotation
                    End Site
                    {
                      OFFSET 0 0 0
                    }
                  }
                }
              }
            }
          }
        }
      }
    }
    JOINT LEFTHIP
    {
      OFFSET -9 -6 0
      CHANNELS 6 Xposition Yposition Zposition Zrotation Xrotation Yrotation
      JOINT LEFTKNEE
      {
        OFFSET 0 -45 0
        CHANNELS 6 Xposition Yposition Zposition Zrotation Xrotation Yrotation
        JOINT LEFTANKLE
        {
          OFFSET 1 -41 0
          CHANNELS 6 Xposition Yposition Zposition Zrotation Xrotation Yrotation
          JOINT LEFTBIGTOE
          {
            OFFSET 4 -6 -14
            CHANNELS 6 Xposition Yposition Zposition Zrotation Xrotation Yrotation
            End Site
            {
              OFFSET 0 0 0
            }
          }
          JOINT LEFTSMALLTOE
          {
            OFFSET -3 -6 -10
            CHANNELS 6 Xposition Yposition Zposition Zrotation Xrotation Yrotation
            End Site
            {
              OFFSET 0 0 0
            }
          }
          JOINT LEFTHEEL
          {
            OFFSET 0 -6 6
            CHANNELS 6 Xposition Yposition Zposition Zrotation Xrotation Yrotation
            End Site
            {
              OFFSET 0 0 0
            }
          }
        }
      }
    }
    JOINT RIGHTHIP
    {
      OFFSET 9 -6 0
      CHANNELS 6 Xposition Yposition Zposition Zrotation Xrotation Yrotation
      JOINT RIGHTKNEE
      {
        OFFSET 0 -45 0
        CHANNELS 6 Xposition Yposition Zposition Zrotation Xrotation Yrotation
        JOINT RIGHTANKLE
        {
          OFFSET -1 -41 0
          CHANNELS 6 Xposition Yposition Zposition Zrotation Xrotation Yrotation
          JOINT RIGHTBIGTOE
          {
            OFFSET -3 -6 -14
            CHANNELS 6 Xposition Yposition Zposition Zrotation Xrotation Yrotation
            End Site
            {
              OFFSET 0 0 0
            }
          }
          JOINT RIGHTSMALLTOE
          {
            OFFSET 4 -6 -10
            CHANNELS 6 Xposition Yposition Zposition Zrotation Xrotation Yrotation
            End Site
            {
              OFFSET 0 0 0
            }
          }
          JOINT RIGHTHEEL
          {
            OFFSET 0 -6 6
            CHANNELS 6 Xposition Yposition Zposition Zrotation Xrotation Yrotation
            End Site
            {
              OFFSET 0 0 0
            }
          }
        }
      }
    }
  }
}
MOTION
Frames:	4
Frame Time:	0.0333333
0 0 0 0 0 -0 62.223 101.066 -172.066 -5.59494 16.9032 -160.677 -1.42109e-14 7 2.84217e-14 -7.32379 -4.72618 1.22175 0 13 0 -3.3498 -1.89977 0.139812 0 13 0 -0.0988582 -0.138654 -0.161612 0 17 2.84217e-14 31.9659 48.6351 -2.75179 0 20 -8 -3.18055e-15 0 3.18055e-15 -3 6 4 -1.59028e-15 -6.36111e-15 -6.36111e-15 -4 -6 9 -1.59028e-15 -3.18055e-15 -3.18055e-15 3 6 4 -1.59028e-15 -6.36111e-15 -6.36111e-15 4 -6 9 -1.59028e-15 -3.18055e-15 -3.18055e-15 -7 12 5 3.02355 -1.72095 6.74132 -11 2.84217e-14 0 -28.1838 -25.7118 -46.3693 -26 1.42109e-14 -2.84217e-14 -1.53453e-13 -6.36111e-15 -82.8747 -26 -1.42109e-14 -1.42109e-14 29.4738 -9.13542 4.08616 -11 -4 -6 -1.98785e-16 0 -7.95139e-16 11 -4 -6 -1.98785e-16 0 -7.95139e-16 11 0 -3 -1.98785e-16 0 -7.95139e-16 19 -2.84217e-14 -1 -1.98785e-16 0 -7.95139e-16 7 12 5 -4.00316 -9.16115 1.25356 11 -1.42109e-14 2.84217e-14 -45.0924 -28.6902 112.472 26 2.84217e-14 -2.84217e-14 7.85444e-16 -7.95139e-16 44.6486 26 -2.84217e-14 0 24.1356 26.1213 -19.7196 11 -4 -6 6.36111e-15 0 1.59028e-15 -11 -2.84217e-14 -3 6.36111e-15 0 1.59028e-15 -19 2.84217e-14 -1 6.36111e-15 0 1.59028e-15 -11 -1 4 6.36111e-15 0 1.59028e-15 -9 -6 2.84217e-14 -3.71976 19.1207 32.6848 2.84217e-14 -45 7.10543e-15 3.25501e-16 -16.7198 -6.64191e-15 1 -41 1.42109e-14 2.66565 17.4351 0.492693 4 -6 -14 7.95139e-16 -1.39149e-15 -1.27222e-14 -3 -6 -10 7.95139e-16 -1.39149e-15 -1.27222e-14 -5.68434e-14 -6 6 7.95139e-16 -1.39149e-15 -1.27222e-14 9 -6 0 19.6047 6.39845 -61.872 0 -45 0 7.9734e-16 -0.0132193 9.54166e-15 -1 -41 0 1.50204 5.77484 4.32404 -3 -6 -14 -8.32411e-16 -8.44835e-16 -0 4 -6 -10 -8.32411e-16 -8.44835e-16 -0 1.42109e-14 -6 6 -8.32411e-16 -8.44835e-16 -0 
0 0 0 0 0 -0 63.5928 100.23 -173.481 -4.48275 18.0106 -162.32 -1.42109e-14 7 0 -8.14153 -5.27528 -0.791628 0 13 0 -3.7852 -2.64501 -1.28347 0 13 0 -0.14574 -0.321823 -0.341649 1.42109e-14 17 0 30.3547 47.3683 -3.76607 0 20 -8 1.59028e-15 6.36111e-15 -6.36111e-15 -3 6 4 1.76556e-31 3.18055e-15 -3.18055e-15 -4 -6 9 -3.18055e-15 3.18055e-15 -3.18055e-15 3 6 4 1.76556e-31 3.18055e-15 -3.18055e-15 4 -6 9 -3.18055e-15 3.18055e-15 -3.18055e-15 -7 12 5 2.98443 -2.12746 6.39056 -11 0 0 -26.6321 -26.9916 -47.4498 -26 1.42109e-14 -2.84217e-14 1.12971e-13 0 -83.5339 -26 0 -7.10543e-15 29.649 -9.0252 4.49301 -11 -4 -6 -7.95139e-16 0 3.97569e-16 11 -4 -6 -7.95139e-16 0 3.97569e-16 11 0 -3 -7.95139e-16 0 3.97569e-16 19 0 -1 -7.95139e-16 0 3.97569e-16 7 12 5 -3.59237 -9.36611 1.31107 11 0 2.84217e-14 -43.7337 -29.0455 111.35 26 0 -1.42109e-14 -6.40094e-15 1.11319e-14 44.2399 26 2.84217e-14 0 23.716 26.2451 -19.3726 11 -4 -6 6.36111e-15 -1.59028e-15 1.59028e-15 -11 -2.84217e-14 -3 6.36111e-15 -1.59028e-15 1.59028e-15 -19 0 -1 6.36111e-15 -1.59028e-15 1.59028e-15 -11 -1 4 6.36111e-15 -1.59028e-15 1.59028e-15 -9 -6 2.84217e-14 -2.39813 20.7872 32.8824 0 -45 7.10543e-15 -1.3862e-15 -18.1444 -1.33879e-14 1 -41 1.42109e-14 2.66565 17.4351 0.492693 4 -6 -14 -3.97569e-16 -1.19271e-15 -3.18055e-15 -3 -6 -10 -3.97569e-16 -1.19271e-15 -3.18055e-15 0 -6 6 -3.97569e-16 -1.19271e-15 -3.18055e-15 9 -6 2.84217e-14 21.3129 6.67603 -61.8927 -1.42109e-14 -45 0 4.37326e-15 -0.0115644 -0 -1 -41 0 1.66939 5.70667 4.46793 -3 -6 -14 2.38542e-15 -3.97569e-16 6.36111e-15 4 -6 -10 2.38542e-15 -3.97569e-16 6.36111e-15 0 -6 6 2.38542e-15 -3.97569e-16 6.36111e-15 
0 0 0 0 0 -0 65.5357 99.615 -175.841 -3.32768 18.5702 -164.321 0 7 0 -9.10573 -6.16658 -2.77558 -1.42109e-14 13 2.84217e-14 -4.34462 -3.77584 -2.53245 -1.42109e-14 13 0 -0.173784 -0.559976 -0.454558 0 17 0 26.9845 44.808 -6.53246 0 20 -8 3.97569e-16 0 1.59028e-15 -3 6 4 -1.19271e-15 0 -0 -4 -6 9 3.97569e-16 0 3.18055e-15 3 6 4 -1.19271e-15 0 -0 4 -6 9 3.97569e-16 0 3.18055e-15 -7 12 5 2.96626 -2.49242 6.24805 -11 1.42109e-14 0 -23.8493 -28.6184 -47.0906 -26 -1.42109e-14 2.84217e-14 -1.67918e-13 1.43125e-14 -83.9933 -26 -2.84217e-14 0 29.7085 -8.93951 4.8193 -11 -4 -6 1.59028e-15 3.18055e-15 -1.59028e-15 11 -4 -6 1.59028e-15 3.18055e-15 -1.59028e-15 11 2.84217e-14 -3 1.59028e-15 3.18055e-15 -1.59028e-15 19 2.84217e-14 -1 1.59028e-15 3.18055e-15 -1.59028e-15 7 12 5 -3.13257 -9.53924 1.23018 11 1.42109e-14 0 -43.6445 -28.2965 109.178 26 0 0 1.35374e-14 -1.43125e-14 43.4057 26 -2.84217e-14 -2.84217e-14 23.3301 26.3221 -19.0651 11 -4 -6 -6.36111e-15 1.59028e-15 -0 -11 0 -3 -6.36111e-15 1.59028e-15 -0 -19 0 -1 -6.36111e-15 1.59028e-15 -0 -11 -1 4 -6.36111e-15 1.59028e-15 -0 -9 -6 2.84217e-14 -0.823016 22.3759 33.0459 0 -45 0 2.6777e-15 -19.7202 6.75742e-15 1 -41 1.42109e-14 2.66565 17.4351 0.492693 4 -6 -14 -8.82781e-32 -7.95139e-16 -6.36111e-15 -3 -6 -10 -8.82781e-32 -7.95139e-16 -6.36111e-15 0 -6 6 -8.82781e-32 -7.95139e-16 -6.36111e-15 9 -6 0 23.1347 7.18963 -61.8146 1.42109e-14 -45 2.84217e-14 5.1684e-15 -0.148119 -0 -1 -41 2.84217e-14 1.88342 5.5099 4.66036 -3 -6 -14 -5.96354e-16 -7.95139e-16 -3.18055e-15 4 -6 -10 -5.96354e-16 -7.95139e-16 -3.18055e-15 0 -6 6 -5.96354e-16 -7.95139e-16 -3.18055e-15 
0 0 0 0 0 -0 67.0048 99.3674 -177.897 -2.23964 18.7202 -166.371 0 7 0 -9.94148 -7.47921 -4.34803 0 13 0 -4.80758 -5.10742 -3.36091 0 13 -2.84217e-14 -0.249422 -0.776378 -0.464713 1.42109e-14 17 0 21.032 42.3042 -10.5934 -7.10543e-15 20 -8 -1.14301e-15 -3.18055e-15 1.98785e-16 -3 6 4 -1.19271e-15 -1.59028e-15 -0 -4 -6 9 -1.31695e-15 -3.18055e-15 5.96354e-16 3 6 4 -1.19271e-15 -1.59028e-15 -0 4 -6 9 -1.31695e-15 -3.18055e-15 5.96354e-16 -7 12 5 2.96519 -2.77506 6.29801 -11 1.42109e-14 -2.84217e-14 -20.6312 -30.1008 -45.3464 -26 -2.84217e-14 0 1.85532e-13 2.54444e-14 -84.1376 -26 -2.84217e-14 1.42109e-14 29.6856 -8.87576 5.07368 -11 -4 -6 -1.59028e-15 3.18055e-15 -0 11 -4 -6 -1.59028e-15 3.18055e-15 -0 11 -2.84217e-14 -3 -1.59028e-15 3.18055e-15 -0 19 0 -1 -1.59028e-15 3.18055e-15 -0 7 12 5 -2.71006 -9.66112 0.897993 11 -1.42109e-14 2.84217e-14 -45.7252 -25.5583 105.377 26 0 1.42109e-14 1.28094e-14 -9.54166e-15 41.8319 26 -2.84217e-14 -1.42109e-14 23.0023 26.3559 -18.8331 11 -4 -6 3.18055e-15 -1.59028e-15 -3.18055e-15 -11 0 -3 3.18055e-15 -1.59028e-15 -3.18055e-15 -19 0 -1 3.18055e-15 -1.59028e-15 -3.18055e-15 -11 -1 4 3.18055e-15 -1.59028e-15 -3.18055e-15 -9 -6 0 0.63762 23.7351 33.2464 0 -45 -7.10543e-15 -2.42898e-15 -21.241 -3.41238e-15 1 -41 -2.84217e-14 2.66565 17.4351 0.492693 4 -6 -14 -7.95139e-16 -3.97569e-16 -3.18055e-15 -3 -6 -10 -7.95139e-16 -3.97569e-16 -3.18055e-15 0 -6 6 -7.95139e-16 -3.97569e-16 -3.18055e-15 9 -6 0 24.928 7.87162 -61.6445 1.42109e-14 -45 0 -2.38542e-15 -0.498862 -0 -1 -41 0 2.06767 5.1582 4.8123 -3 -6 -14 1.78906e-15 -4.57205e-15 -3.18055e-15 4 -6 -10 1.78906e-15 -4.57205e-15 -3.18055e-15 0 -6 6 1.78906e-15 -4.57205e-15 -3.18055e-15 
